# xmcd CD database file
#
# Track frame offsets:
#	150
#	20199
#	44116
#	64211
#	89426
#	106312
#	126879
#	145459
#	166451
#	183784
#	204588
#	222535
#	238746
#	260468
#
# Disc length: 3710 seconds
#
# Revision: 2
# Processed by: cddbd v1.5.2PL0 Copyright (c) Steve Scherf et al.
# Submitted via: CDex 1.51
#
DISCID=de0e7c0e
DTITLE=Kevin Costner and Modern West - Untold Truth
DYEAR=2010
DGENRE=Country
TTITLE0=Long Hot Night
TTITLE1=90 Miles An Hour
TTITLE2=Hey Man What About You?
TTITLE3=Superman 14
TTITLE4=Don't Lock 'Em Away (Song For Molly)
TTITLE5=Down In Nogales
TTITLE6=Every Intention
TTITLE7=Five Minutes From America
TTITLE8=The Sun Will Rise Again
TTITLE9=Backyard
TTITLE10=Leland Iowa
TTITLE11=Gotta Get Away (Song For Bud)
TTITLE12=Angles Came Down
TTITLE13=The Sun Will Rise Again (Live)
EXTD=YEAR: 2010
EXTT0=
EXTT1=
EXTT2=
EXTT3=
EXTT4=
EXTT5=
EXTT6=
EXTT7=
EXTT8=
EXTT9=
EXTT10=
EXTT11=
EXTT12=
EXTT13=
PLAYORDER=
